<svg width="24" height="24" viewBox="0 0 24 24" fill="none" xmlns="http://www.w3.org/2000/svg">
<path d="M12 13.2507C12.8338 13.2507 13.6529 13.4705 14.375 13.8874C15.0969 14.3043 15.6964 14.9037 16.1133 15.6257L14.8145 16.3757C14.5292 15.8817 14.119 15.4715 13.625 15.1862C13.1309 14.901 12.5705 14.7507 12 14.7507C11.4295 14.7507 10.8691 14.901 10.375 15.1862C9.88104 15.4715 9.47076 15.8817 9.18555 16.3757L7.88672 15.6257C8.30356 14.9037 8.90308 14.3043 9.625 13.8874C10.3471 13.4705 11.1662 13.2507 12 13.2507Z" fill="black"/>
<path d="M10.7305 8.25068C10.7097 8.39433 10.673 8.5359 10.6172 8.6706C10.5292 8.8828 10.3997 9.07556 10.2373 9.23798C10.0748 9.4004 9.88216 9.52995 9.66992 9.61787C9.45763 9.70578 9.22978 9.75068 9 9.75068C8.77022 9.75068 8.54237 9.70578 8.33008 9.61787C8.11784 9.52995 7.92515 9.4004 7.7627 9.23798C7.60027 9.07556 7.47076 8.8828 7.38281 8.6706C7.32702 8.5359 7.29031 8.39433 7.26953 8.25068H10.7305Z" fill="black"/>
<path d="M16.7305 8.25068C16.7097 8.39433 16.673 8.5359 16.6172 8.6706C16.5292 8.8828 16.3997 9.07556 16.2373 9.23798C16.0748 9.4004 15.8822 9.52995 15.6699 9.61787C15.4576 9.70578 15.2298 9.75068 15 9.75068C14.7702 9.75068 14.5424 9.70578 14.3301 9.61787C14.1178 9.52995 13.9252 9.4004 13.7627 9.23798C13.6003 9.07556 13.4708 8.8828 13.3828 8.6706C13.327 8.5359 13.2903 8.39433 13.2695 8.25068H16.7305Z" fill="black"/>
<path fill-rule="evenodd" clip-rule="evenodd" d="M7.53809 2.38056C10.4975 1.95778 13.5025 1.95778 16.4619 2.38056C18.3485 2.6502 19.7499 4.26583 19.75 6.17158V14.0007C19.7498 18.2807 16.2801 21.7507 12 21.7507C7.71989 21.7507 4.25016 18.2807 4.25 14.0007V6.17158C4.25015 4.26583 5.65151 2.6502 7.53809 2.38056ZM16.25 3.86494C13.4312 3.46226 10.5688 3.46226 7.75 3.86494C6.60246 4.02906 5.75015 5.01235 5.75 6.17158V14.0007C5.75016 17.4523 8.54832 20.2507 12 20.2507C15.4517 20.2507 18.2498 17.4523 18.25 14.0007V6.17158C18.2499 5.01235 17.3975 4.02906 16.25 3.86494Z" fill="black"/>
</svg>
