<svg width="24" height="24" viewBox="0 0 24 24" fill="none" xmlns="http://www.w3.org/2000/svg">
<path fill-rule="evenodd" clip-rule="evenodd" d="M12 13.25C13.5188 13.25 14.75 14.4812 14.75 16C14.75 17.5188 13.5188 18.75 12 18.75C10.4812 18.75 9.25 17.5188 9.25 16C9.25 14.4812 10.4812 13.25 12 13.25ZM12 14.75C11.3096 14.75 10.75 15.3096 10.75 16C10.75 16.6904 11.3096 17.25 12 17.25C12.6904 17.25 13.25 16.6904 13.25 16C13.25 15.3096 12.6904 14.75 12 14.75Z" fill="black"/>
<path d="M15 11.75H9V10.25H15V11.75Z" fill="black"/>
<path fill-rule="evenodd" clip-rule="evenodd" d="M15.2188 2.25C16.0217 2.25 16.7221 2.79633 16.917 3.5752L17.6953 6.69141L18.9521 8.57617C19.4723 9.3564 19.75 10.2732 19.75 11.2109V20C19.75 20.9665 18.9665 21.75 18 21.75H6C5.0335 21.75 4.25 20.9665 4.25 20V11.2109C4.25003 10.2732 4.5277 9.3564 5.04785 8.57617L6.30371 6.69141L7.08301 3.5752C7.27789 2.79633 7.97835 2.25 8.78125 2.25H15.2188ZM6.2959 9.4082C5.94002 9.94203 5.75003 10.5694 5.75 11.2109V20C5.75 20.1381 5.86193 20.25 6 20.25H18C18.1381 20.25 18.25 20.1381 18.25 20V11.2109C18.25 10.5694 18.06 9.94203 17.7041 9.4082L16.5986 7.75H7.40137L6.2959 9.4082ZM8.78125 3.75C8.66653 3.75 8.56591 3.82816 8.53809 3.93945L7.95996 6.25H16.04L15.4619 3.93945C15.4341 3.82816 15.3335 3.75 15.2188 3.75H8.78125Z" fill="black"/>
</svg>
