<svg width="24" height="24" viewBox="0 0 24 24" fill="none" xmlns="http://www.w3.org/2000/svg">
<path d="M10.4521 19.833C10.1649 20.0668 9.87624 20.2994 9.58493 20.5283L9.40817 20.667C8.62877 21.2794 7.57074 21.402 6.67184 20.9844C5.06134 20.2356 3.76638 18.9415 3.01755 17.3311C2.59958 16.4321 2.72241 15.3735 3.33493 14.5938L3.47458 14.417C3.70325 14.126 3.93443 13.8368 4.16794 13.5498L10.4521 19.833Z" fill="black"/>
<path d="M18.5312 12.001C19.2153 12.7901 19.8823 13.5949 20.5283 14.417L20.6679 14.5938C21.2803 15.3734 21.4022 16.4322 20.9843 17.3311C20.2355 18.9413 18.9413 20.2356 17.331 20.9844C16.4321 21.4023 15.3742 21.2794 14.5947 20.667L14.4179 20.5283C13.5955 19.8821 12.7894 19.2157 12 18.5313C14.3291 16.5121 16.512 14.3301 18.5312 12.001Z" fill="black"/>
<path d="M13.5019 6.81349C14.7793 7.99216 16.0087 9.22176 17.1875 10.499C15.1288 12.893 12.8921 15.128 10.498 17.1865C9.22104 16.0081 7.99187 14.779 6.81344 13.502C8.87196 11.108 11.108 8.87209 13.5019 6.81349Z" fill="black"/>
<path d="M6.66891 3.01759C7.56852 2.59908 8.62782 2.72089 9.40817 3.334L9.58298 3.47267C10.4053 4.11881 11.2106 4.78547 12 5.46974C9.67093 7.48898 7.48883 9.67186 5.46969 12.001C4.7852 11.2115 4.11891 10.4056 3.47262 9.58302L3.33395 9.40724C2.72102 8.62688 2.59875 7.56759 3.01755 6.66798C3.76658 5.05944 5.06047 3.76665 6.66891 3.01759Z" fill="black"/>
<path d="M14.5947 3.334C15.3752 2.72103 16.4344 2.59885 17.334 3.01759C18.9423 3.76665 20.2353 5.05955 20.9843 6.66798C21.4031 7.56754 21.2818 8.62688 20.6689 9.40724L20.5293 9.58302C20.2999 9.87493 20.0672 10.1644 19.833 10.4522L13.5498 4.16798C13.8374 3.9339 14.1272 3.7019 14.4189 3.47267L14.5947 3.334Z" fill="black"/>
</svg>
