<svg width="24" height="24" viewBox="0 0 24 24" fill="none" xmlns="http://www.w3.org/2000/svg">
<path fill-rule="evenodd" clip-rule="evenodd" d="M3.75 9.59863L8.33203 6.54395C8.61949 6.35231 8.95725 6.25001 9.30273 6.25H11.5859C12.05 6.25004 12.4951 6.43454 12.8232 6.7627L13.8232 7.7627C13.9209 7.86023 14.0791 7.86023 14.1768 7.7627L18.1768 3.7627C18.5049 3.43454 18.95 3.25004 19.4141 3.25H20C20.9665 3.25 21.75 4.0335 21.75 5V14.25H19.2363C18.9646 14.25 18.6961 14.3131 18.4531 14.4346L14.876 16.2236C14.8413 16.241 14.8025 16.25 14.7637 16.25H10.3027C9.95725 16.25 9.61949 16.3523 9.33203 16.5439L3.77344 20.25H6.47656L10.1641 17.792C10.2051 17.7646 10.2534 17.75 10.3027 17.75H14.7637C15.0354 17.75 15.3039 17.6869 15.5469 17.5654L19.124 15.7764C19.1587 15.759 19.1975 15.75 19.2363 15.75H21.75V20.25H22V21.75H3C2.58579 21.75 2.25 21.4142 2.25 21V2H3.75V9.59863ZM19.4141 4.75C19.3478 4.75004 19.2842 4.77639 19.2373 4.82324L15.2373 8.82324C14.5539 9.50656 13.4461 9.50656 12.7627 8.82324L11.7627 7.82324C11.7158 7.77639 11.6522 7.75004 11.5859 7.75H9.30273C9.25339 7.75001 9.20512 7.76462 9.16406 7.79199L3.75 11.4014V15.5986L8.33203 12.5439C8.61949 12.3523 8.95725 12.25 9.30273 12.25H14.667C14.7209 12.2499 14.7733 12.2325 14.8164 12.2002L18.2832 9.59961C18.586 9.37254 18.9545 9.25007 19.333 9.25H20C20.085 9.25 20.1683 9.25783 20.25 9.26953V5C20.25 4.86193 20.1381 4.75 20 4.75H19.4141Z" fill="black"/>
</svg>
