<svg width="24" height="24" viewBox="0 0 24 24" fill="none" xmlns="http://www.w3.org/2000/svg">
<path fill-rule="evenodd" clip-rule="evenodd" d="M6.94455 3.0715C10.2563 2.18838 13.7422 2.18843 17.0539 3.0715C18.9455 3.57592 20.4234 5.05399 20.9279 6.94552C21.8111 10.2573 21.811 13.7431 20.9279 17.0549C20.4235 18.9466 18.9456 20.4245 17.0539 20.9289C13.7421 21.812 10.2563 21.8121 6.94455 20.9289C5.05301 20.4244 3.57495 18.9465 3.07052 17.0549C2.18746 13.7431 2.1874 10.2573 3.07052 6.94552C3.575 5.05398 5.05301 3.57598 6.94455 3.0715ZM6.99924 17.2502V18.7502H16.9992V17.2502H6.99924ZM7.24924 12.3977C7.24944 13.9775 8.32502 15.3542 9.85763 15.7375C11.2637 16.089 12.7347 16.089 14.1408 15.7375C15.6736 15.3543 16.749 13.9776 16.7492 12.3977V6.00021H15.2492V12.3977C15.249 13.2891 14.6423 14.066 13.7776 14.2824C12.6103 14.5742 11.3882 14.5742 10.2209 14.2824C9.3563 14.0659 8.74944 13.289 8.74924 12.3977V6.00021H7.24924V12.3977Z" fill="black"/>
</svg>
